<svg xmlns="http://www.w3.org/2000/svg" width="27" height="27" viewBox="0 0 27 27">
    <path d="M26.99 8.392C26.781 3.86 23.331.285 19.134.25h-.01c-2.213 0-4.134.913-5.63 2.659C11.993 1.163 10.058.25 7.824.25h-.01C3.645.285.218 3.861.011 8.392c-.334 7.276 7.305 12.626 12.736 17.518.214.193.483.289.753.289s.54-.096.753-.29c5.498-4.951 13.069-10.262 12.736-17.517zm-24.732.103C2.411 5.16 4.856 2.528 7.827 2.5c1.945.002 3.53.98 4.711 2.91.44.719 1.483.717 1.92-.001 1.175-1.929 2.744-2.907 4.663-2.909 3 .028 5.468 2.66 5.621 5.995.066 1.437-.276 2.809-.907 4.13h-6.96c-.426 0-.816.24-1.007.622l-1.165 2.33-2.419-5.645c-.184-.43-.613-.7-1.08-.681-.467.02-.873.325-1.021.768l-.869 2.606H3.167c-.632-1.322-.975-2.693-.909-4.13zM13.5 23.568c-3.175-2.8-6.718-5.626-8.965-8.694h5.59c.484 0 .914-.31 1.067-.769l.19-.567 2.209 5.155c.172.402.563.668 1 .68l.034.001c.425 0 .815-.24 1.006-.622l1.94-3.892h4.897c-2.25 3.073-5.8 5.916-8.968 8.708z"/>
</svg>
