<svg xmlns="http://www.w3.org/2000/svg" width="20" height="20" viewBox="0 0 20 20">
    <path fill="#23be76" stroke="#23be76" d="M10 1c2.387 0 4.676.948 6.364 2.636C18.052 5.324 19 7.613 19 10c0 4.97-4.03 9-9 9s-9-4.03-9-9 4.03-9 9-9zm0 1.337c-4.232 0-7.663 3.43-7.663 7.663 0 4.232 3.43 7.663 7.663 7.663 2.032 0 3.981-.807 5.418-2.245 1.438-1.437 2.245-3.386 2.245-5.418 0-4.232-3.43-7.663-7.663-7.663zm2.782 4.803c.26-.186.625-.162.86.07.127.127.198.297.198.476 0 .178-.071.349-.198.474h0l-4.63 4.63-.078.067c-.113.08-.248.125-.388.126-.179 0-.35-.069-.476-.194h0l-2.254-2.264c-.146-.17-.2-.388-.15-.598.059-.244.25-.435.494-.493.244-.059.5.024.664.215h0l1.723 1.724L12.7 7.21z"/>
</svg>
