<svg xmlns="http://www.w3.org/2000/svg" width="20" height="20" viewBox="0 0 20 20">
    <path fill="#ff1146" stroke="#ff1146" d="M16.061 3.494l.22.22.228.228.21.226c1.993 2.212 2.75 5.293 1.991 8.195-.813 3.107-3.24 5.534-6.347 6.347-3.007.787-6.199-.055-8.424-2.204l-.22-.22-.228-.228-.21-.226C1.287 13.62.53 10.539 1.29 7.637 2.103 4.53 4.53 2.103 7.637 1.29c3.007-.787 6.199.055 8.424 2.204zM3.001 7.112c-1.38 3.339-.21 7.188 2.796 9.193 3.005 2.005 7.008 1.608 9.56-.947 1.425-1.419 2.223-3.348 2.216-5.359-.003-3.612-2.557-6.72-6.101-7.422s-7.09 1.197-8.47 4.535zm9.742-.518c.176 0 .344.07.467.194.126.125.196.293.196.469 0 .175-.07.343-.194.466h0L10.925 10l2.286 2.276.068.08c.082.112.127.247.127.387 0 .176-.07.344-.194.467-.125.126-.293.196-.469.196-.175 0-.343-.07-.466-.194h0L10 10.925 7.724 13.21l-.08.068c-.112.082-.247.127-.387.127-.176 0-.344-.07-.467-.194-.126-.125-.196-.293-.196-.469 0-.175.07-.343.194-.466h0L9.075 10 6.79 7.724l-.07-.082c-.185-.258-.162-.62.07-.853.258-.258.677-.258.935 0h0L10 9.075l2.276-2.286.08-.068c.112-.082.247-.127.387-.127z"/>
</svg>
