<svg xmlns="http://www.w3.org/2000/svg" width="31" height="31" viewBox="0 0 31 31">
    <path stroke-width=".6" d="M25.753 5.247C23.014 2.508 19.373 1 15.5 1S7.986 2.508 5.247 5.247 1 11.627 1 15.5s1.508 7.514 4.247 10.253S11.627 30 15.5 30s7.514-1.508 10.253-4.247S30 19.373 30 15.5s-1.508-7.514-4.247-10.253zM6.45 6.449c2.417-2.418 5.632-3.75 9.051-3.75 3.134 0 6.096 1.12 8.43 3.169l-3.087 3.088-.504-1.737c-.106-.364-.44-.615-.82-.615H11.48c-.379 0-.713.251-.819.615l-1.25 4.31c-.562 1.933-.19 3.965 1.019 5.576.327.435.701.82 1.113 1.15l-5.675 5.676c-2.049-2.335-3.169-5.297-3.169-8.431 0-3.42 1.332-6.634 3.75-9.051zm12.758 9.632c-.884 1.176-2.235 1.851-3.707 1.851-.377 0-.746-.044-1.101-.13l5.604-5.604c.333 1.355.047 2.76-.796 3.883zm-6.448.958c-.361-.266-.687-.587-.966-.959-.884-1.176-1.155-2.662-.745-4.076l1.073-3.694h6.758l.587 2.022-6.707 6.707zm11.792 7.512c-2.417 2.418-5.632 3.75-9.051 3.75-3.134 0-6.096-1.12-8.43-3.169l5.98-5.98c.507.21 1.043.356 1.597.43v4.015h-2.545c-.471 0-.853.381-.853.852s.382.853.853.853h6.796c.471 0 .853-.382.853-.853 0-.47-.382-.852-.853-.852h-2.545V19.58c1.676-.222 3.182-1.097 4.217-2.476 1.21-1.61 1.581-3.643 1.02-5.576l-.207-.71 3.75-3.75C27.18 9.404 28.3 12.366 28.3 15.5c0 3.42-1.332 6.634-3.75 9.051z"/>
</svg>
