<svg xmlns="http://www.w3.org/2000/svg" width="25" height="25" viewBox="0 0 25 25">
    <path d="M17.857 5.37l-8.744 8.743c-.236.235-.37.554-.37.887 0 .333.134.652.37.887.235.236.554.37.887.37.333 0 .652-.134.887-.37l8.743-8.744c.49-.49.49-1.283 0-1.773s-1.284-.49-1.773 0zm5.308-3.535C21.993.66 20.403 0 18.743 0c-1.659 0-3.25.66-4.421 1.835L4.117 12.115c-.231.232-.361.546-.363.874v6.483L.37 22.857c-.236.234-.369.554-.369.887 0 .333.133.652.37.887.234.236.553.369.886.369.333 0 .653-.133.887-.37l3.385-3.384h6.483c.328-.002.642-.132.874-.363l10.28-10.205C24.34 9.507 25 7.916 25 6.257c0-1.66-.66-3.25-1.835-4.422zm-1.774 7.07L11.5 18.747H6.253v-5.246l9.842-9.892c1.477-1.376 3.778-1.336 5.205.091s1.467 3.728.091 5.205z"/>
</svg>
