<svg xmlns="http://www.w3.org/2000/svg" xmlns:xlink="http://www.w3.org/1999/xlink" width="407" height="407" viewBox="0 0 407 407">
    <defs>
        <rect id="prefix__a" width="406.855" height="406.855" x="0" y=".145" rx="8"/>
        <rect id="prefix__c" width="406.855" height="406.855" x="0" y="0" rx="8"/>
    </defs>
    <g fill="none" fill-rule="evenodd">
        <mask id="prefix__b" fill="#fff">
            <use xlink:href="#prefix__a"/>
        </mask>
        <g mask="url(#prefix__b)">
            <g transform="translate(0 .145)">
                <mask id="prefix__d" fill="#fff">
                    <use xlink:href="#prefix__c"/>
                </mask>
                <use fill="#11448F" fill-opacity=".122" xlink:href="#prefix__c"/>
                <path fill="#11448F" fill-opacity=".242" d="M224.107 223.188c9.478 0 18.418 1.795 26.82 5.385 8.4 3.59 15.724 8.51 21.971 14.756 6.247 6.247 11.166 13.571 14.756 21.972 3.59 8.402 5.386 17.341 5.386 26.82v4.523l-4.093 1.723c-.288.144-2.442.97-6.463 2.478-4.02 1.508-9.693 3.16-17.017 4.954-7.324 1.795-16.228 3.411-26.712 4.847-10.483 1.436-22.26 2.154-35.328 2.154-13.212 0-25.024-.718-35.435-2.154-10.412-1.436-19.28-3.052-26.604-4.847-7.324-1.795-12.996-3.446-17.018-4.954-4.02-1.508-6.175-2.334-6.462-2.478l-4.093-1.723v-4.524c0-9.478 1.795-18.417 5.386-26.819 3.59-8.4 8.508-15.725 14.755-21.972 6.247-6.247 13.571-11.165 21.973-14.756 8.4-3.59 17.34-5.385 26.819-5.385zm-20.68-130.972c7.612 0 14.756 1.436 21.434 4.309 6.678 2.872 12.53 6.821 17.556 11.847 5.027 5.027 8.976 10.879 11.848 17.557 2.872 6.677 4.308 13.822 4.308 21.433 0 7.324-1.4 14.684-4.2 22.08-2.8 7.396-6.642 14.038-11.525 19.926-4.883 5.888-10.699 10.699-17.448 14.433-6.75 3.734-14.074 5.6-21.973 5.6-7.898 0-15.222-1.866-21.972-5.6-6.75-3.734-12.566-8.545-17.448-14.433-4.883-5.888-8.725-12.53-11.525-19.926-2.8-7.396-4.2-14.756-4.2-22.08 0-7.611 1.435-14.756 4.308-21.433 2.872-6.678 6.821-12.53 11.847-17.557 5.027-5.026 10.879-8.975 17.557-11.847 6.678-2.873 13.822-4.309 21.433-4.309z" mask="url(#prefix__d)"/>
            </g>
        </g>
    </g>
</svg>
