<svg xmlns="http://www.w3.org/2000/svg" width="47" height="79" viewBox="0 0 47 79">
    <g fill="none" fill-rule="evenodd">
        <path fill="#FFF" fill-opacity="0" d="M0 0H47V79H0z"/>
        <path fill="#B1BBC9" fill-rule="nonzero" d="M41.91.794c2.601 0 4.723 2.06 4.835 4.64l.005.217v59.485c0 2.609-2.051 4.739-4.625 4.852l-.216.005h-8.72c-.88 1.77-1.942 3.444-3.17 4.992-1.18 1.49-2.895 2.46-4.772 2.7-1.211.164-2.441-.108-3.497-.785-1.296-.91-2.068-2.396-2.068-3.982l-.001-2.895H5.091c-2.602 0-4.724-2.059-4.836-4.64l-.005-.216V5.65C.25 3.04 2.301.912 4.875.799l.216-.005h36.818zM25.817 43.33h-4.637v2.063c0 .245-.118.472-.314.611l-.089.054c-1.95 1.017-3.175 3.04-3.175 5.249 0 2.208 1.225 4.231 3.175 5.248.248.13.404.386.404.665v15.698c0 1.098.534 2.126 1.403 2.736.73.468 1.603.661 2.466.545 1.494-.192 2.855-.962 3.793-2.145.971-1.226 1.833-2.534 2.576-3.909l.064-.122h-4.916c-.38 0-.693-.282-.743-.648l-.007-.102V57.22c0-.28.156-.536.404-.665 1.95-1.017 3.175-3.04 3.175-5.248s-1.225-4.232-3.175-5.249c-.248-.129-.404-.385-.404-.665V43.33zM41.909 2.294H5.091c-1.783 0-3.24 1.404-3.336 3.173l-.005.184v59.516c0 1.792 1.398 3.256 3.158 3.351l.183.005h14.59V57.656l-.073-.042c-2.09-1.295-3.409-3.556-3.5-6.031l-.005-.276c0-2.582 1.337-4.964 3.505-6.307l.073-.044V42.58c0-.38.283-.693.649-.743l.102-.007h6.136c.414 0 .75.336.75.75v2.376l.074.044c2.09 1.295 3.409 3.556 3.5 6.03l.005.277c0 2.582-1.337 4.964-3.505 6.307l-.074.042v10.836h14.591c1.783 0 3.24-1.403 3.336-3.172l.005-.184V5.65c0-1.793-1.398-3.256-3.158-3.352l-.183-.005zM40.886 35.67c.415 0 .75.336.75.75 0 .38-.282.693-.648.743l-.102.007H6.114c-.415 0-.75-.336-.75-.75 0-.38.282-.693.648-.743l.102-.007h34.772zM36.284 9.49c.38 0 .694.282.743.648l.007.102v19.507c0 .414-.336.75-.75.75-.38 0-.693-.282-.743-.649l-.007-.101V10.989H11.465v18.758c0 .38-.281.693-.647.743l-.102.007c-.38 0-.694-.282-.743-.649l-.007-.101V10.24c0-.38.282-.693.648-.743l.102-.007h25.568zm-5.58 12.32c1.52 0 2.75 1.231 2.75 2.75v.107c0 1.518-1.23 2.75-2.75 2.75H16.296c-1.518 0-2.75-1.232-2.75-2.75v-.107c0-1.519 1.232-2.75 2.75-2.75zm0 1.5H16.296c-.69 0-1.25.56-1.25 1.25v.107c0 .69.56 1.25 1.25 1.25h14.41c.69 0 1.25-.56 1.25-1.25v-.107c0-.69-.56-1.25-1.25-1.25zm-10.738-9.2c1.519 0 2.75 1.231 2.75 2.75v.107c0 1.518-1.231 2.75-2.75 2.75h-3.16c-1.518 0-2.75-1.232-2.75-2.75v-.107c0-1.519 1.232-2.75 2.75-2.75zm10.227 0c1.519 0 2.75 1.231 2.75 2.75v.107c0 1.518-1.231 2.75-2.75 2.75h-3.159c-1.519 0-2.75-1.232-2.75-2.75v-.107c0-1.519 1.231-2.75 2.75-2.75zm-10.227 1.5h-3.16c-.69 0-1.25.56-1.25 1.25v.107c0 .69.56 1.25 1.25 1.25h3.16c.69 0 1.25-.56 1.25-1.25v-.107c0-.69-.56-1.25-1.25-1.25zm10.227 0h-3.159c-.69 0-1.25.56-1.25 1.25v.107c0 .69.56 1.25 1.25 1.25h3.16c.69 0 1.25-.56 1.25-1.25v-.107c0-.69-.56-1.25-1.25-1.25z"/>
    </g>
</svg>
