<svg xmlns="http://www.w3.org/2000/svg" xmlns:xlink="http://www.w3.org/1999/xlink" width="60" height="60" viewBox="0 0 60 60">
    <defs>
        <rect id="prefix__a" width="60" height="60" x="0" y="0" rx="30"/>
    </defs>
    <g fill="none" fill-rule="evenodd">
        <mask id="prefix__b" fill="#fff">
            <use xlink:href="#prefix__a"/>
        </mask>
        <use fill="#11448F" fill-opacity=".122" xlink:href="#prefix__a"/>
        <path fill="#FF1146" fill-rule="nonzero" d="M29.308 21.8l.198.003c3.052.09 5.863 1.433 7.844 3.633-5.073 4.38-7.618 6.578-7.633 6.597-.025.031-.12.08-.21.057-.061-.016-.105-.075-.131-.177L29.308 21.8zm9.086 1.492l.19.084c.724.76 1.144 1.199 1.26 1.314.173.173.26.378.26.615 0 .16-.5-.37-.879-.682l.028-.1-.18-.284c-.22-.34-.447-.655-.68-.947z" mask="url(#prefix__b)"/>
        <path fill="#11448F" fill-rule="nonzero" d="M30 43.245c1.695 0 3.286-.323 4.771-.97 1.486-.648 2.78-1.523 3.883-2.625 1.103-1.103 1.978-2.398 2.625-3.883.647-1.486.971-3.076.971-4.772 0-1.622-.296-3.149-.889-4.58-.592-1.43-1.399-2.693-2.42-3.787-1.02-1.094-2.224-1.978-3.609-2.652-1.385-.675-2.871-1.067-4.457-1.176h-1.75c-1.586.11-3.072.501-4.457 1.176-1.385.674-2.589 1.558-3.61 2.652-1.02 1.094-1.827 2.356-2.42 3.787-.592 1.431-.888 2.958-.888 4.58 0 1.696.324 3.286.97 4.772.648 1.485 1.523 2.78 2.626 3.883 1.103 1.102 2.397 1.977 3.883 2.625 1.485.647 3.076.97 4.771.97zm0-1.75c-1.44 0-2.798-.273-4.074-.82-1.276-.547-2.393-1.299-3.35-2.256-.957-.957-1.709-2.073-2.256-3.35-.547-1.276-.82-2.634-.82-4.074s.273-2.798.82-4.074c.547-1.276 1.3-2.392 2.256-3.35.957-.957 2.074-1.709 3.35-2.255 1.276-.547 2.634-.82 4.074-.82s2.798.273 4.074.82c1.276.547 2.393 1.298 3.35 2.255.957.958 1.709 2.074 2.256 3.35.547 1.276.82 2.634.82 4.074s-.273 2.798-.82 4.075c-.547 1.276-1.3 2.392-2.256 3.35-.957.956-2.074 1.708-3.35 2.255-1.276.547-2.634.82-4.074.82z" mask="url(#prefix__b)"/>
        <path fill="#FF1146" fill-rule="nonzero" d="M30.875 17.555V15.75h1.75c.237 0 .442-.087.615-.26.173-.173.26-.378.26-.615s-.087-.442-.26-.615c-.173-.173-.378-.26-.615-.26h-5.25c-.237 0-.442.087-.615.26-.173.173-.26.378-.26.615s.087.442.26.615c.173.173.378.26.615.26h1.75v1.805h1.75z" mask="url(#prefix__b)"/>
    </g>
</svg>
