<svg xmlns="http://www.w3.org/2000/svg" width="66" height="79" viewBox="0 0 66 79">
    <g fill="none" fill-rule="evenodd">
        <path fill="#FFF" fill-opacity="0" d="M0 0H66V79H0z"/>
        <path fill="#B1BBC9" fill-rule="nonzero" d="M47.5 7.25c10.08 0 18.25 8.17 18.25 18.25S57.58 43.75 47.5 43.75h-3.75v11.22c.007.135-.023.275-.098.402l-.012.019c-.025.041-.055.08-.09.119l.054-.065-.033.041-.02.024-7.481 8.08c-.217.242-.217.608.009.861l3.49 4.06c.418.486.072 1.239-.569 1.239H20c-.217 0-.424-.094-.567-.259L15.92 65.44c-.723-.811-.723-2.037.01-2.86l7.32-7.875V43.75H18.5C8.533 43.75.432 35.76.253 25.835L.25 25.5C.25 15.42 8.42 7.25 18.5 7.25zm-6.218 48.5H24.326l-7.286 7.84c-.193.215-.214.528-.06.771l.067.088 3.295 3.801h17.025l-2.417-2.81c-.683-.767-.721-1.903-.106-2.719l.116-.14 6.322-6.831zm.968-12h-17.5v10.5h17.5v-10.5zm5.25-35h-29c-9.25 0-16.75 7.5-16.75 16.75s7.5 16.75 16.75 16.75h29c9.25 0 16.75-7.5 16.75-16.75S56.75 8.75 47.5 8.75zM30.055 15.3c5.63 0 10.195 4.564 10.195 10.195 0 5.63-4.564 10.195-10.195 10.195h-12.11c-5.63 0-10.195-4.564-10.195-10.195 0-5.63 4.564-10.195 10.195-10.195zm0 1.5h-12.11c-4.802 0-8.695 3.893-8.695 8.695 0 4.802 3.893 8.695 8.695 8.695h12.11c4.802 0 8.695-3.893 8.695-8.695 0-4.802-3.893-8.695-8.695-8.695zM19 19.25c3.452 0 6.25 2.798 6.25 6.25s-2.798 6.25-6.25 6.25-6.25-2.798-6.25-6.25 2.798-6.25 6.25-6.25zm0 1.5c-2.623 0-4.75 2.127-4.75 4.75s2.127 4.75 4.75 4.75 4.75-2.127 4.75-4.75-2.127-4.75-4.75-4.75zM19 24c.828 0 1.5.672 1.5 1.5S19.828 27 19 27s-1.5-.672-1.5-1.5.672-1.5 1.5-1.5z"/>
    </g>
</svg>
