<svg xmlns="http://www.w3.org/2000/svg" width="24" height="24" viewBox="0 0 24 24">
    <g fill="none" fill-rule="evenodd">
        <path fill="#FFF" fill-rule="nonzero" d="M0 0H24V24H0z" opacity=".01"/>
        <g stroke="#11448F" stroke-linecap="round" stroke-width="1.2">
            <path stroke-linejoin="round" d="M14.496 16H1.076C.482 16 0 15.476 0 14.828V1.204C0 .539.495 0 1.106 0h18.787C20.504 0 21 .539 21 1.204v13.624c0 .648-.482 1.172-1.077 1.172h-5.559" transform="translate(1.5 4)"/>
            <path d="M9.134 7.905l.025-2.301c.001-.169.14-.305.31-.304l2.147.023c.168 0 .306.141.303.31l-.024 2.3 2.301.024c.17.002.305.142.304.311l-.021 2.148c-.003.169-.143.306-.311.303l-2.302-.024-.023 2.301c-.003.17-.142.306-.31.304l-2.149-.023c-.169 0-.304-.14-.303-.31l.025-2.3-2.301-.024c-.17-.002-.307-.142-.305-.31l.023-2.149c0-.169.14-.306.31-.303l2.3.024zM0 2.5L21 2.5" transform="translate(1.5 4)"/>
        </g>
    </g>
</svg>
