<?xml version="1.0" encoding="UTF-8"?>
<svg width="24px" height="24px" viewBox="0 0 24 24" version="1.1" xmlns="http://www.w3.org/2000/svg" xmlns:xlink="http://www.w3.org/1999/xlink">
    <g id="UI-kit" stroke="none" stroke-width="1" fill="none" fill-rule="evenodd">
        <g id="Icons" transform="translate(-31.000000, -463.000000)">
            <g transform="translate(31.000000, 280.000000)" id="ic-checkBlue-outline">
                <g transform="translate(0.000000, 183.000000)">
                    <rect id="Rectangle" fill-opacity="0.01" fill="#999999" x="0" y="0" width="24" height="24"></rect>
                    <path d="M9.5,18.5 C9.578125,18.5 9.65625,18.483724 9.734375,18.4511719 C9.8125,18.4186198 9.88411458,18.3763021 9.94921875,18.3242188 L21.1992188,7.07421875 C21.3164062,6.94401042 21.375,6.79427083 21.375,6.625 C21.375,6.45572917 21.3164062,6.30598958 21.1992188,6.17578125 C21.0690104,6.05859375 20.9192708,6 20.75,6 C20.5807292,6 20.4309896,6.05859375 20.3007812,6.17578125 L9.5,16.9960938 L3.69921875,11.1757812 C3.56901042,11.0585938 3.41927083,11 3.25,11 C3.08072917,11 2.93098958,11.0585938 2.80078125,11.1757812 C2.68359375,11.3059896 2.625,11.4557292 2.625,11.625 C2.625,11.7942708 2.68359375,11.9440104 2.80078125,12.0742188 L9.05078125,18.3242188 C9.11588542,18.3763021 9.1875,18.4186198 9.265625,18.4511719 C9.34375,18.483724 9.421875,18.5 9.5,18.5 Z" id="" fill="#22be76" fill-rule="nonzero"></path>
                </g>
            </g>
        </g>
    </g>
</svg>