<?xml version="1.0" encoding="UTF-8"?>
<svg width="7px" height="12px" viewBox="0 0 7 12" version="1.1" xmlns="http://www.w3.org/2000/svg" xmlns:xlink="http://www.w3.org/1999/xlink">
    <title>ic-caret-top</title>
    <g id="UI-kit" stroke="none" stroke-width="1" fill="none" fill-rule="evenodd">
        <g id="Icons" transform="translate(-589.000000, -428.000000)" fill="#0B2B5C" fill-rule="nonzero">
            <g transform="translate(80.000000, 280.000000)" id="ic-caret-top">
                <g transform="translate(509.000000, 148.000000)">
                    <g id="ic-caret-down" transform="translate(0.000000, 8.000000)" fill-opacity="0.4" opacity="0.501842">
                        <path d="M3.42857552,3.8571403 C3.54241494,3.8571403 3.64955792,3.81026525 3.72991516,3.72990801 L6.72991874,0.729904432 C6.81027598,0.649547193 6.85715103,0.542404208 6.85715103,0.428564787 C6.85715103,0.194189508 6.66295437,-7.15255737e-06 6.42857909,-7.15255737e-06 L0.428571939,-7.15255737e-06 C0.19419666,-7.15255737e-06 0,0.194189508 0,0.428564787 C0,0.542404208 0.0468750559,0.649547193 0.127232295,0.729904432 L3.12723587,3.72990801 C3.20759311,3.81026525 3.31473609,3.8571403 3.42857552,3.8571403 Z" id=""></path>
                    </g>
                    <g fill-opacity="0.6" id="">
                        <path d="M6.42857909,4.28571224 C6.66295437,4.28571224 6.85715103,4.09151558 6.85715103,3.8571403 C6.85715103,3.74330088 6.81027598,3.6361579 6.72991874,3.55580066 L3.72991516,0.555797081 C3.64955792,0.475439843 3.54241494,0.428564787 3.42857552,0.428564787 C3.31473609,0.428564787 3.20759311,0.475439843 3.12723587,0.555797081 L0.127232295,3.55580066 C0.0468750559,3.6361579 0,3.74330088 0,3.8571403 C0,4.09151558 0.19419666,4.28571224 0.428571939,4.28571224 L6.42857909,4.28571224 Z"></path>
                    </g>
                </g>
            </g>
        </g>
    </g>
</svg>