<svg xmlns="http://www.w3.org/2000/svg" xmlns:xlink="http://www.w3.org/1999/xlink" width="18" height="18" viewBox="0 0 18 18">
    <path d="M16.5 17c.135 0 .253-.05.352-.148.099-.1.148-.217.148-.352V3c0-.135-.05-.253-.148-.352-.1-.099-.217-.148-.352-.148H14v-1c0-.135-.05-.253-.148-.352-.1-.099-.217-.148-.352-.148h-2c-.135 0-.253.05-.352.148-.099.1-.148.217-.148.352v1H7v-1c0-.135-.05-.253-.148-.352C6.752 1.05 6.635 1 6.5 1h-2c-.135 0-.253.05-.352.148-.099.1-.148.217-.148.352v1H1.5c-.135 0-.253.05-.352.148C1.05 2.748 1 2.865 1 3v13.5c0 .135.05.253.148.352.1.099.217.148.352.148h15zM13 4h-1V2h1v2zM6 4H5V2h1v2zm10 2H2V3.5h2v1c0 .135.05.253.148.352.1.099.217.148.352.148h2c.135 0 .253-.05.352-.148.099-.1.148-.217.148-.352v-1h4v1c0 .135.05.253.148.352.1.099.217.148.352.148h2c.135 0 .253-.05.352-.148.099-.1.148-.217.148-.352v-1h2V6zm0 10H2V7h14v9zm-8-2c.063 0 .125-.013.188-.04.062-.025.12-.059.171-.1l4-4c.094-.105.141-.225.141-.36 0-.135-.047-.255-.14-.36-.105-.093-.225-.14-.36-.14-.135 0-.255.047-.36.14L8 12.798 6.36 11.14C6.254 11.047 6.134 11 6 11c-.135 0-.255.047-.36.14-.093.105-.14.225-.14.36 0 .135.047.255.14.36l2 2c.053.041.11.075.173.1.062.027.125.04.187.04z"/>
</svg>
