<svg xmlns="http://www.w3.org/2000/svg" width="32" height="32" viewBox="0 0 32 32">
    <g fill="none" fill-rule="evenodd">
        <circle cx="16" cy="16" r="16" fill="#D5F2E5"/>
        <path fill="#22BE76" fill-rule="nonzero" stroke="#22BE76" stroke-width=".5" d="M14.365 20.078c.052 0 .103-.011.155-.033.051-.021.099-.05.142-.083l7.425-7.425c.077-.086.116-.185.116-.297 0-.112-.04-.21-.116-.296-.086-.078-.185-.116-.297-.116-.112 0-.21.038-.296.116l-7.129 7.141-3.828-3.841c-.086-.078-.185-.116-.297-.116-.112 0-.21.038-.296.116-.078.086-.116.184-.116.296 0 .112.038.21.116.297l4.125 4.125c.043.034.09.062.141.083.052.022.104.033.155.033z"/>
    </g>
</svg>
