<svg xmlns="http://www.w3.org/2000/svg" width="32" height="32" viewBox="0 0 32 32">
    <g fill="none" fill-rule="evenodd">
        <circle cx="16" cy="16" r="16" fill="#FFE7ED"/>
        <path fill="#FF1146" fill-rule="nonzero" stroke="#FF1146" stroke-width=".2" d="M21.656 21.063c.059 0 .117-.013.176-.037.059-.025.112-.056.161-.095.088-.098.132-.21.132-.337 0-.127-.044-.24-.132-.337l-4.834-4.82 4.834-4.819c.088-.097.132-.21.132-.337 0-.127-.044-.239-.132-.337-.097-.088-.21-.132-.337-.132-.127 0-.239.044-.337.132L16.5 14.778l-4.82-4.834c-.097-.088-.21-.132-.336-.132-.127 0-.24.044-.337.132-.088.098-.132.21-.132.337 0 .127.044.24.132.337l4.834 4.82-4.834 4.819c-.088.097-.132.21-.132.337 0 .127.044.239.132.337.049.039.102.07.161.095.059.024.117.037.176.037.058 0 .117-.013.176-.037.058-.025.112-.056.16-.095l4.82-4.834 4.82 4.834c.048.039.102.07.16.095.06.024.118.037.176.037z"/>
    </g>
</svg>
