<svg xmlns="http://www.w3.org/2000/svg" xmlns:xlink="http://www.w3.org/1999/xlink" width="60" height="60" viewBox="0 0 60 60">
    <defs>
        <rect id="prefix__a" width="60" height="60" x="0" y="0" rx="30"/>
    </defs>
    <g fill="none" fill-rule="evenodd">
        <mask id="prefix__b" fill="#fff">
            <use xlink:href="#prefix__a"/>
        </mask>
        <use fill="#11448F" fill-opacity=".122" xlink:href="#prefix__a"/>
        <path fill="#11448F" fill-rule="nonzero" d="M20.2 18.375v1.75h-2.45V24.5h24.5v-4.375h-2.451v-1.75h3.326c.197 0 .373.06.526.18l.09.08c.172.173.259.378.259.615v23.625c0 .237-.087.442-.26.615-.173.173-.378.26-.615.26h-26.25c-.237 0-.442-.087-.615-.26-.173-.173-.26-.378-.26-.615V19.25c0-.237.087-.442.26-.615.173-.173.378-.26.615-.26H20.2zm22.05 7.875h-24.5V42h24.5V26.25zm-9.851-7.875v1.75H27.6v-1.75h4.799z" mask="url(#prefix__b)"/>
        <path fill="#FF1146" fill-rule="nonzero" d="M28.25 38.5c.11 0 .219-.023.328-.068.11-.046.21-.105.3-.178l7-7c.165-.182.247-.392.247-.629s-.082-.447-.246-.629c-.182-.164-.392-.246-.629-.246s-.447.082-.629.246l-6.371 6.399-2.871-2.899c-.182-.164-.392-.246-.629-.246s-.447.082-.629.246c-.164.182-.246.392-.246.629s.082.447.246.629l3.5 3.5c.091.073.192.132.3.178.11.045.22.068.329.068z" mask="url(#prefix__b)"/>
        <path fill="#FF1146" fill-rule="nonzero" d="M37.65 22.574h-3c-.552 0-1-.448-1-1V17c0-.552.448-1 1-1h3c.552 0 1 .448 1 1v4.574c0 .552-.448 1-1 1zM25.35 22.574h-3c-.552 0-1-.448-1-1V17c0-.552.448-1 1-1h3c.552 0 1 .448 1 1v4.574c0 .552-.448 1-1 1z"/>
    </g>
</svg>
