<svg xmlns="http://www.w3.org/2000/svg" width="73" height="79" viewBox="0 0 73 79">
    <g fill="none" fill-rule="evenodd">
        <path fill="#FFF" fill-opacity="0" d="M0 0H73V79H0z"/>
        <path fill="#B1BBC9" fill-rule="nonzero" d="M68.405 7.25c2.4 0 4.345 1.945 4.345 4.345v21.57c0 .414-.336.75-.75.75l-2.845-.001v11.082H72c.38 0 .693.283.743.65l.007.1v20.672c0 2.4-1.945 4.345-4.345 4.345H4.595c-2.4 0-4.345-1.946-4.345-4.345V45.747c0-.414.336-.75.75-.75l2.844-.001V33.914H1c-.38 0-.693-.282-.743-.648l-.007-.101v-21.57c0-2.4 1.945-4.345 4.345-4.345zm0 1.5H4.595c-1.571 0-2.845 1.274-2.845 2.845v20.819h2.845c.38 0 .693.283.743.649l.007.102v12.582c0 .414-.336.75-.75.75l-2.845-.001v19.922c0 1.513 1.181 2.75 2.672 2.84l.173.005h63.81c1.571 0 2.845-1.274 2.845-2.845V46.496h-2.845c-.38 0-.693-.281-.743-.647l-.007-.102V33.165c0-.415.336-.75.75-.75l2.845-.001v-20.82c0-1.512-1.181-2.75-2.672-2.839l-.173-.005zm-4.494 6.022c.415 0 .75.336.75.75V62.49c0 .414-.335.75-.75.75H9.09c-.415 0-.75-.336-.75-.75V15.522c0-.414.335-.75.75-.75zm4.045 42.807c1.158 0 2.098.94 2.098 2.098 0 1.159-.94 2.098-2.098 2.098-1.16 0-2.098-.939-2.098-2.098 0-1.159.939-2.098 2.098-2.098zm-62.912 0c1.16 0 2.098.94 2.098 2.098 0 1.159-.939 2.098-2.098 2.098-1.158 0-2.098-.939-2.098-2.098 0-1.159.94-2.098 2.098-2.098zm58.117-41.307H9.838V61.74h53.323V16.272zm4.795 42.807c-.33 0-.598.268-.598.598 0 .33.267.598.598.598.33 0 .598-.267.598-.598 0-.33-.268-.598-.598-.598zm-62.912 0c-.33 0-.598.268-.598.598 0 .33.268.598.598.598.33 0 .598-.267.598-.598 0-.33-.267-.598-.598-.598zm62.912-6.892c1.158 0 2.098.94 2.098 2.098 0 1.159-.94 2.098-2.098 2.098-1.16 0-2.098-.94-2.098-2.098 0-1.159.939-2.098 2.098-2.098zm-62.912 0c1.16 0 2.098.94 2.098 2.098 0 1.159-.939 2.098-2.098 2.098-1.158 0-2.098-.94-2.098-2.098 0-1.159.94-2.098 2.098-2.098zm62.912 1.5c-.33 0-.598.267-.598.598 0 .33.267.598.598.598.33 0 .598-.268.598-.598 0-.33-.268-.598-.598-.598zm-62.912 0c-.33 0-.598.267-.598.598 0 .33.268.598.598.598.33 0 .598-.268.598-.598 0-.33-.267-.598-.598-.598zm27.268-34.758c.266.266.29.682.073.976l-.073.084-18.873 18.874c-.293.293-.768.293-1.061 0-.266-.267-.29-.683-.073-.977l.073-.084L31.25 18.929c.293-.293.768-.293 1.061 0zm-7.864.674c.266.266.29.683.073.976l-.073.084L14.113 31c-.293.293-.768.293-1.061 0-.266-.267-.29-.683-.073-.977l.073-.084 10.335-10.335c.293-.293.768-.293 1.061 0zm43.508 2.027c1.158 0 2.098.94 2.098 2.098 0 1.159-.94 2.098-2.098 2.098-1.16 0-2.098-.94-2.098-2.098 0-1.159.939-2.098 2.098-2.098zm-62.912 0c1.16 0 2.098.94 2.098 2.098 0 1.159-.939 2.098-2.098 2.098-1.158 0-2.098-.94-2.098-2.098 0-1.159.94-2.098 2.098-2.098zm62.912 1.5c-.33 0-.598.268-.598.598 0 .33.267.598.598.598.33 0 .598-.268.598-.598 0-.33-.268-.598-.598-.598zm-62.912 0c-.33 0-.598.268-.598.598 0 .33.268.598.598.598.33 0 .598-.268.598-.598 0-.33-.267-.598-.598-.598zm62.912-6.893c1.158 0 2.098.94 2.098 2.098 0 1.16-.94 2.099-2.098 2.099-1.16 0-2.098-.94-2.098-2.099 0-1.158.939-2.098 2.098-2.098zm-62.912 0c1.16 0 2.098.94 2.098 2.098 0 1.16-.939 2.099-2.098 2.099-1.158 0-2.098-.94-2.098-2.099 0-1.158.94-2.098 2.098-2.098zm62.912 1.5c-.33 0-.598.268-.598.598 0 .33.267.599.598.599.33 0 .598-.268.598-.599 0-.33-.268-.598-.598-.598zm-62.912 0c-.33 0-.598.268-.598.598 0 .33.268.599.598.599.33 0 .598-.268.598-.599 0-.33-.267-.598-.598-.598z"/>
    </g>
</svg>
