<svg xmlns="http://www.w3.org/2000/svg" width="24" height="24" viewBox="0 0 24 24">
    <path fill="#999" fill-opacity=".01" d="M0 0H24V24H0z"/>
    <path d="M8.25 21c.078 0 .156-.016.234-.049.079-.032.15-.075.215-.127l12.5-12.5c.117-.13.176-.28.176-.449 0-.17-.059-.319-.176-.45l-4.375-4.374c-.13-.117-.28-.176-.449-.176-.17 0-.319.059-.45.176l-12.5 12.5c-.051.065-.094.136-.126.215-.033.078-.049.156-.049.234v4.375c0 .17.062.316.186.44.123.123.27.185.439.185H8.25zm10-11.504L14.754 6l1.621-1.621 3.496 3.496-1.621 1.621zM7.996 19.75H4.5v-3.496l9.375-9.375 3.496 3.496-9.375 9.375z"/>
</svg>
