<svg xmlns="http://www.w3.org/2000/svg" xmlns:xlink="http://www.w3.org/1999/xlink" width="60" height="60" viewBox="0 0 60 60">
    <defs>
        <rect id="prefix__a" width="60" height="60" x="0" y="0" rx="30"/>
    </defs>
    <g fill="none" fill-rule="evenodd">
        <mask id="prefix__b" fill="#fff">
            <use xlink:href="#prefix__a"/>
        </mask>
        <use fill="#11448F" fill-opacity=".122" xlink:href="#prefix__a"/>
        <path fill="#FF1146" fill-rule="nonzero" d="M29.875 17.555V15.75h1.75c.237 0 .442-.087.615-.26.173-.173.26-.378.26-.615s-.087-.442-.26-.615c-.173-.173-.378-.26-.615-.26h-5.25c-.237 0-.442.087-.615.26-.173.173-.26.378-.26.615s.087.442.26.615c.173.173.378.26.615.26h1.75v1.805h1.75z" mask="url(#prefix__b)"/>
        <path fill="#11448F" fill-rule="nonzero" d="M29.125 43.3c1.695 0 3.286-.324 4.771-.97 1.486-.648 2.78-1.523 3.883-2.626 1.103-1.103 1.978-2.397 2.625-3.883.647-1.485.971-3.076.971-4.771 0-.82-.077-1.627-.232-2.42-.155-.793-.388-1.563-.698-2.31-.11-.22-.273-.374-.492-.465-.219-.091-.437-.091-.656 0-.237.09-.401.25-.492.478-.091.228-.091.451 0 .67.273.638.478 1.299.615 1.983.137.683.205 1.371.205 2.064 0 1.44-.273 2.798-.82 4.074-.547 1.276-1.3 2.393-2.256 3.35-.957.957-2.074 1.709-3.35 2.256-1.276.547-2.634.82-4.074.82s-2.798-.273-4.074-.82c-1.276-.547-2.393-1.3-3.35-2.256-.957-.957-1.709-2.074-2.256-3.35-.547-1.276-.82-2.634-.82-4.074s.273-2.798.82-4.074c.547-1.276 1.3-2.393 2.256-3.35.957-.957 2.074-1.709 3.35-2.256 1.276-.547 2.634-.82 4.074-.82 1.003 0 1.978.137 2.926.41.948.274 1.84.675 2.68 1.203.2.128.419.164.656.11.237-.055.419-.183.547-.383.127-.2.164-.42.109-.656-.055-.237-.182-.42-.383-.547-.984-.62-2.028-1.09-3.13-1.408-1.104-.32-2.238-.479-3.405-.479-1.695 0-3.286.324-4.771.97-1.486.648-2.78 1.523-3.883 2.626-1.103 1.103-1.978 2.397-2.625 3.883-.647 1.485-.971 3.076-.971 4.771 0 1.695.324 3.286.97 4.771.648 1.486 1.523 2.78 2.626 3.883 1.103 1.103 2.397 1.978 3.883 2.625 1.485.647 3.076.971 4.771.971z" mask="url(#prefix__b)"/>
        <path fill="#FF1146" fill-rule="nonzero" d="M29.125 32.375c.11 0 .219-.023.328-.068.11-.046.21-.105.3-.178L42.88 19.004c.164-.182.246-.392.246-.629s-.082-.447-.246-.629c-.182-.164-.392-.246-.629-.246s-.447.082-.629.246L29.125 30.27l-3.746-3.774c-.182-.164-.392-.246-.629-.246s-.447.082-.629.246c-.164.182-.246.392-.246.629s.082.447.246.629l4.375 4.375c.091.073.192.132.3.178.11.045.22.068.329.068z"/>
    </g>
</svg>
