<svg xmlns="http://www.w3.org/2000/svg" xmlns:xlink="http://www.w3.org/1999/xlink" width="18" height="18" viewBox="0 0 18 18">
    <path d="M9 14.75c1.125 0 2.186-.267 3.182-.8s1.869-1.122 2.619-1.766c.75-.645 1.35-1.248 1.802-1.811.45-.562.694-.867.729-.914.07-.105.105-.217.105-.334 0-.117-.035-.223-.105-.316-.035-.059-.278-.367-.73-.923-.45-.557-1.048-1.16-1.792-1.81-.745-.651-1.615-1.243-2.61-1.776-.997-.533-2.063-.8-3.2-.8s-2.203.267-3.2.8c-.995.533-1.868 1.125-2.618 1.775-.75.65-1.348 1.254-1.793 1.81-.446.557-.686.865-.721.924-.07.093-.106.199-.106.316 0 .117.036.223.106.316.035.059.278.367.73.923.45.557 1.048 1.16 1.792 1.81.745.651 1.615 1.243 2.61 1.776.997.533 2.063.8 3.2.8zm0-1.125c-.832 0-1.635-.185-2.408-.554-.774-.369-1.477-.8-2.11-1.292-.632-.492-1.18-.99-1.643-1.494-.463-.504-.8-.89-1.01-1.16.21-.27.547-.656 1.01-1.16.463-.504 1.01-1.002 1.643-1.494s1.333-.923 2.101-1.292c.768-.37 1.573-.554 2.417-.554.832 0 1.635.185 2.408.554.774.369 1.477.8 2.11 1.292.632.492 1.177.99 1.634 1.494.457.504.797.89 1.02 1.16-.223.27-.563.656-1.02 1.16-.457.504-1.005 1.002-1.643 1.494-.639.492-1.342.923-2.11 1.292-.767.37-1.567.554-2.399.554zM9 12.5c.926 0 1.72-.331 2.382-.993.662-.662.993-1.456.993-2.382 0-.926-.331-1.72-.993-2.382C10.72 6.081 9.926 5.75 9 5.75c-.926 0-1.72.331-2.382.993-.662.662-.993 1.456-.993 2.382 0 .926.331 1.72.993 2.382.662.662 1.456.993 2.382.993zm0-1.125c-.621 0-1.151-.22-1.59-.66-.44-.439-.66-.969-.66-1.59 0-.621.22-1.151.66-1.59.439-.44.969-.66 1.59-.66.621 0 1.151.22 1.59.66.44.439.66.969.66 1.59 0 .621-.22 1.151-.66 1.59-.439.44-.969.66-1.59.66z"/>
</svg>
