<svg xmlns="http://www.w3.org/2000/svg" width="24" height="24" viewBox="0 0 24 24">
    <g fill="none" fill-rule="evenodd">
        <path fill="#FFF" fill-rule="nonzero" d="M0 0H24V24H0z" opacity=".01"/>
        <path fill="#11448F" d="M8.884 22c.17 0 .315-.062.438-.186.124-.123.185-.27.185-.439l.02-6.25h4.966v6.25c0 .17.061.316.185.44.123.123.269.185.438.185h4.362c.168 0 .315-.062.438-.186.123-.123.185-.27.185-.439V12.02l.837.878c.052.066.117.114.195.147.078.032.162.049.253.049.078 0 .153-.017.224-.05.071-.032.14-.074.204-.126.117-.13.179-.28.185-.45.007-.169-.048-.318-.165-.448l-9.367-9.825c-.052-.065-.116-.114-.194-.146-.078-.033-.163-.049-.254-.049-.077 0-.155.016-.233.049-.078.032-.15.081-.214.146L2.166 12.02c-.117.13-.172.28-.165.449.006.169.068.319.185.449.13.117.279.172.447.166.17-.007.318-.068.448-.186l.838-.878v9.355c0 .17.058.316.175.44.117.123.266.185.448.185h4.342zm-.623-1.25H5.165v-9.863c0-.026-.003-.052-.01-.078-.006-.026-.01-.052-.01-.079l6.874-7.187 6.855 7.187c-.013.027-.02.053-.02.079v9.941H15.74V14.5c0-.17-.062-.316-.185-.44-.123-.123-.27-.185-.438-.185H8.904c-.169 0-.315.062-.438.186-.124.123-.185.27-.185.439l-.02 6.25z"/>
    </g>
</svg>
