<svg xmlns="http://www.w3.org/2000/svg" xmlns:xlink="http://www.w3.org/1999/xlink" width="24" height="24" viewBox="0 0 24 24">
    <defs>
        <path id="prefix__a" d="M0 0H24V24H0z"/>
    </defs>
    <g fill="none" fill-rule="evenodd">
        <mask id="prefix__b" fill="#fff">
            <use xlink:href="#prefix__a"/>
        </mask>
        <use fill="#FFF" fill-rule="nonzero" opacity=".01" xlink:href="#prefix__a"/>
        <path fill="#11448F" fill-rule="nonzero" d="M20.75 22.25c.17 0 .316-.062.44-.186.123-.123.185-.27.185-.439V2.875c0-.17-.062-.316-.186-.44-.123-.123-.27-.185-.439-.185h-9.375c-.17 0-.316.062-.44.186-.123.123-.185.27-.185.439 0 .17.062.316.186.44.123.123.27.185.439.185h8.75V21h-8.75c-.17 0-.316.062-.44.186-.123.123-.185.27-.185.439 0 .17.062.316.186.44.123.123.27.185.439.185h9.375zm-13.125-5c.078 0 .156-.016.234-.049.079-.032.15-.075.215-.127.117-.13.176-.28.176-.449 0-.17-.059-.319-.176-.45l-3.32-3.3h11.621c.17 0 .316-.062.44-.186.123-.123.185-.27.185-.439 0-.17-.062-.316-.186-.44-.123-.123-.27-.185-.439-.185H4.754l3.32-3.3c.117-.131.176-.28.176-.45 0-.17-.059-.319-.176-.45-.13-.116-.28-.175-.449-.175-.17 0-.319.059-.45.176L2.802 11.8l-.069.107c-.02.033-.042.069-.068.108-.026.078-.039.156-.039.234 0 .078.013.156.04.234.025.04.048.075.067.108l.069.107 4.375 4.375c.065.052.136.095.215.127.078.033.156.049.234.049z" mask="url(#prefix__b)"/>
    </g>
</svg>
