<?xml version="1.0" encoding="UTF-8"?>
<svg width="32px" height="32px" viewBox="0 0 32 32" version="1.1" xmlns="http://www.w3.org/2000/svg" xmlns:xlink="http://www.w3.org/1999/xlink">
    <!-- Generator: Sketch 64 (93537) - https://sketch.com -->
    <title>ic-link-lgCircle</title>
    <desc>Created with Sketch.</desc>
    <defs>
        <rect id="path-1" x="0" y="0" width="32" height="32" rx="16"></rect>
    </defs>
    <g id="UI-kit" stroke="none" stroke-width="1" fill="none" fill-rule="evenodd">
        <g id="Icons" transform="translate(-194.000000, -392.000000)">
            <g transform="translate(80.000000, 280.000000)" id="ic-link-lgCicrcle">
                <g transform="translate(114.000000, 112.000000)">
                    <g>
                        <mask id="mask-2" fill="white">
                            <use xlink:href="#path-1"></use>
                        </mask>
                        <use id="BG-Circle" fill-opacity="0.122241" fill="#11448F" xlink:href="#path-1"></use>
                        <path d="M18.671875,16.65625 C19.109375,16.65625 19.53125,16.5729167 19.9375,16.40625 C20.34375,16.2395833 20.7083333,16 21.03125,15.6875 L22.53125,14.1875 C22.84375,13.8645833 23.0833333,13.5026042 23.25,13.1015625 C23.4166667,12.7005208 23.5,12.2760417 23.5,11.828125 C23.5,11.3802083 23.4166667,10.9557292 23.25,10.5546875 C23.0833333,10.1536458 22.84375,9.79166667 22.53125,9.46875 C22.2083333,9.15625 21.8463542,8.91666667 21.4453125,8.75 C21.0442708,8.58333333 20.6197917,8.5 20.171875,8.5 C19.7239583,8.5 19.2994792,8.58333333 18.8984375,8.75 C18.4973958,8.91666667 18.1354167,9.15625 17.8125,9.46875 L16.3125,10.96875 C15.9270833,11.3541667 15.6536458,11.8072917 15.4921875,12.328125 C15.3307292,12.8489583 15.296875,13.3802083 15.390625,13.921875 C15.421875,14.0572917 15.4921875,14.1640625 15.6015625,14.2421875 C15.7109375,14.3203125 15.8333333,14.3489583 15.96875,14.328125 C16.1041667,14.296875 16.2135417,14.2239583 16.296875,14.109375 C16.3802083,13.9947917 16.40625,13.8697917 16.375,13.734375 C16.3125,13.359375 16.3385417,12.9921875 16.453125,12.6328125 C16.5677083,12.2734375 16.7604167,11.9583333 17.03125,11.6875 L18.53125,10.1875 C18.75,9.96875 19,9.79947917 19.28125,9.6796875 C19.5625,9.55989583 19.859375,9.5 20.171875,9.5 C20.484375,9.5 20.78125,9.55989583 21.0625,9.6796875 C21.34375,9.79947917 21.59375,9.96875 21.8125,10.1875 C22.03125,10.40625 22.2005208,10.65625 22.3203125,10.9375 C22.4401042,11.21875 22.5,11.515625 22.5,11.828125 C22.5,12.140625 22.4401042,12.4375 22.3203125,12.71875 C22.2005208,13 22.03125,13.25 21.8125,13.46875 L20.3125,14.96875 C20.0520833,15.2395833 19.7395833,15.4322917 19.375,15.546875 C19.0104167,15.6614583 18.640625,15.6875 18.265625,15.625 C18.1302083,15.59375 18.0052083,15.6197917 17.890625,15.703125 C17.7760417,15.7864583 17.703125,15.8958333 17.671875,16.03125 C17.6510417,16.1666667 17.6796875,16.2890625 17.7578125,16.3984375 C17.8359375,16.5078125 17.9427083,16.578125 18.078125,16.609375 C18.1822917,16.6197917 18.28125,16.6302083 18.375,16.640625 C18.46875,16.6510417 18.5677083,16.65625 18.671875,16.65625 Z M13.5,19 C13.5625,19 13.625,18.9869792 13.6875,18.9609375 C13.75,18.9348958 13.8072917,18.9010417 13.859375,18.859375 L18.859375,13.859375 C18.953125,13.7552083 19,13.6354167 19,13.5 C19,13.3645833 18.953125,13.2447917 18.859375,13.140625 C18.7552083,13.046875 18.6354167,13 18.5,13 C18.3645833,13 18.2447917,13.046875 18.140625,13.140625 L13.140625,18.140625 C13.046875,18.2447917 13,18.3645833 13,18.5 C13,18.6354167 13.046875,18.7552083 13.140625,18.859375 C13.1927083,18.9010417 13.25,18.9348958 13.3125,18.9609375 C13.375,18.9869792 13.4375,19 13.5,19 Z M11.828125,23.5 C12.2760417,23.5 12.7005208,23.4166667 13.1015625,23.25 C13.5026042,23.0833333 13.8645833,22.84375 14.1875,22.53125 L15.6875,21.03125 C16.0729167,20.6458333 16.3463542,20.1927083 16.5078125,19.671875 C16.6692708,19.1510417 16.703125,18.6197917 16.609375,18.078125 C16.578125,17.9427083 16.5078125,17.8359375 16.3984375,17.7578125 C16.2890625,17.6796875 16.1666667,17.6510417 16.03125,17.671875 C15.8958333,17.703125 15.7864583,17.7760417 15.703125,17.890625 C15.6197917,18.0052083 15.59375,18.1302083 15.625,18.265625 C15.6875,18.640625 15.6614583,19.0078125 15.546875,19.3671875 C15.4322917,19.7265625 15.2395833,20.0416667 14.96875,20.3125 L13.46875,21.8125 C13.25,22.03125 13,22.2005208 12.71875,22.3203125 C12.4375,22.4401042 12.140625,22.5 11.828125,22.5 C11.515625,22.5 11.21875,22.4401042 10.9375,22.3203125 C10.65625,22.2005208 10.40625,22.03125 10.1875,21.8125 C9.96875,21.59375 9.79947917,21.34375 9.6796875,21.0625 C9.55989583,20.78125 9.5,20.484375 9.5,20.171875 C9.5,19.859375 9.55989583,19.5625 9.6796875,19.28125 C9.79947917,19 9.96875,18.75 10.1875,18.53125 L11.6875,17.03125 C11.9479167,16.7604167 12.2604167,16.5677083 12.625,16.453125 C12.9895833,16.3385417 13.359375,16.3125 13.734375,16.375 C13.8697917,16.40625 13.9947917,16.3802083 14.109375,16.296875 C14.2239583,16.2135417 14.296875,16.1041667 14.328125,15.96875 C14.3489583,15.8333333 14.3203125,15.7109375 14.2421875,15.6015625 C14.1640625,15.4921875 14.0572917,15.421875 13.921875,15.390625 C13.3802083,15.296875 12.8489583,15.3307292 12.328125,15.4921875 C11.8072917,15.6536458 11.3541667,15.9270833 10.96875,16.3125 L9.46875,17.8125 C9.15625,18.1354167 8.91666667,18.4973958 8.75,18.8984375 C8.58333333,19.2994792 8.5,19.7239583 8.5,20.171875 C8.5,20.6197917 8.58333333,21.0442708 8.75,21.4453125 C8.91666667,21.8463542 9.15625,22.2083333 9.46875,22.53125 C9.79166667,22.84375 10.1536458,23.0833333 10.5546875,23.25 C10.9557292,23.4166667 11.3802083,23.5 11.828125,23.5 Z" id="" fill="#11448F" fill-rule="nonzero" mask="url(#mask-2)"></path>
                    </g>
                </g>
            </g>
        </g>
    </g>
</svg>