<svg xmlns="http://www.w3.org/2000/svg" width="77" height="79" viewBox="0 0 77 79">
    <g fill="none" fill-rule="evenodd">
        <path fill="#FFF" fill-opacity="0" d="M0 0H77V79H0z"/>
        <path fill="#B1BBC9" fill-rule="nonzero" d="M74.841 14.667c.59-.007 1.133.314 1.413.832.112.208.174.434.187.662.024.062.043.127.052.196l.007.101v9.662c-.002.56-.15 1.11-.426 1.594l-.126.203-21.341 31.875c-.044.065-.095.12-.152.166-.443.487-1.08.792-1.788.792h-50C1.332 60.75.25 59.668.25 58.333V50c0-.738.331-1.4.853-1.843.026-.112.082-.222.169-.321l28.668-32.36c.46-.517 1.12-.811 1.812-.81zM53.5 49.083H2.667c-.507 0-.917.41-.917.917v8.333c0 .507.41.917.917.917h50c.506 0 .916-.41.916-.917v-9.166c0-.046-.037-.084-.083-.084zM6.583 51.167c.38 0 .694.282.743.648l.007.102v5c0 .414-.335.75-.75.75-.38 0-.693-.282-.743-.649l-.007-.101v-5c0-.415.336-.75.75-.75zm5 0c.38 0 .694.282.743.648l.007.102v5c0 .414-.335.75-.75.75-.38 0-.693-.282-.743-.649l-.007-.101v-5c0-.415.336-.75.75-.75zm5 0c.38 0 .694.282.743.648l.007.102v5c0 .414-.335.75-.75.75-.38 0-.693-.282-.743-.649l-.007-.101v-5c0-.415.336-.75.75-.75zm31.667-.25c.414 0 .75.335.75.75v5c0 .414-.336.75-.75.75h-3.333c-.415 0-.75-.336-.75-.75v-5c0-.415.335-.75.75-.75zm-20.208 0c.414 0 .75.335.75.75v5c0 .414-.336.75-.75.75h-5.834c-.414 0-.75-.336-.75-.75v-5c0-.415.336-.75.75-.75zm9.166.583c1.565 0 2.834 1.269 2.834 2.833 0 1.565-1.269 2.834-2.834 2.834h-1.666c-1.565 0-2.834-1.269-2.834-2.834 0-1.564 1.269-2.833 2.834-2.833zM75 18.881L55.007 48.678c.05.154.076.318.076.489v7.217l19.62-29.302c.16-.239.259-.513.288-.795l.009-.17V18.88zM47.5 52.416h-1.834v3.5H47.5v-3.5zm-20.209 0h-4.333v3.5h4.333v-3.5zm9.917.584h-1.666c-.737 0-1.334.597-1.334 1.333 0 .737.597 1.334 1.334 1.334h1.666c.737 0 1.334-.597 1.334-1.334 0-.736-.597-1.333-1.334-1.333zM74.85 16.167H31.748c-.263-.001-.513.11-.687.305L3.5 47.583h50.434l20.996-31.286c.011-.018.016-.038.014-.058l-.01-.029c-.015-.027-.043-.044-.083-.043zM50.167 39.25c.414 0 .75.336.75.75 0 .38-.282.693-.649.743l-.101.007h-32.5c-.415 0-.75-.336-.75-.75 0-.38.282-.693.648-.743l.102-.007h32.5zm6.666-8.333c.415 0 .75.335.75.75 0 .38-.282.693-.648.743l-.102.007h-32.5c-.414 0-.75-.336-.75-.75 0-.38.282-.694.649-.743l.101-.007h32.5zm7.5-8.334c.415 0 .75.336.75.75 0 .38-.282.694-.648.743l-.102.007h-32.5c-.414 0-.75-.335-.75-.75 0-.38.282-.693.649-.743l.101-.007h32.5z"/>
    </g>
</svg>
