<svg xmlns="http://www.w3.org/2000/svg" width="74" height="79" viewBox="0 0 74 79">
    <g fill="none" fill-rule="evenodd">
        <path fill="#FFF" fill-opacity="0" d="M0 0H74V79H0z"/>
        <path fill="#B1BBC9" fill-rule="nonzero" d="M57.69 7.32c1.085 0 2.125.434 2.888 1.206.709.717 1.123 1.67 1.168 2.664l.004.23v1.829l.25.001c2.55 0 4.631 2.01 4.745 4.533l.005.217v19.958c3.806 1.497 6.5 5.205 6.5 9.542s-2.694 8.045-6.5 9.542V60c0 2.55-2.01 4.631-4.533 4.745L62 64.75l-1.25-.001v.311c0 1.04-.414 2.036-1.15 2.77-.683.68-1.592 1.083-2.549 1.134l-.221.006H17.172c-1.039.003-2.036-.407-2.772-1.14-.684-.682-1.09-1.59-1.144-2.548l-.006-.222v-.311L12 64.75c-2.55 0-4.631-2.01-4.745-4.533L7.25 60v-2.958C3.444 55.546.75 51.837.75 47.5s2.694-8.046 6.5-9.542V18c0-2.55 2.01-4.631 4.533-4.745L12 13.25l.249-.001.001-1.869c0-2.174 1.71-3.95 3.857-4.055l.203-.005h41.38zm1.56 57.429h-44.5v.311c0 .64.255 1.255.709 1.707.408.407.947.652 1.52.696l.191.007h39.662c.64.002 1.256-.251 1.71-.703.408-.407.655-.945.7-1.516l.008-.191v-.311zm6-7.247c-.723.162-1.477.248-2.25.248H11c-.773 0-1.526-.086-2.25-.248V60c0 1.733 1.356 3.15 3.066 3.245l.184.005h50c1.733 0 3.15-1.356 3.245-3.066L65.25 60zM63 38.75H11c-.918 0-1.803.141-2.634.404-.081.046-.172.077-.268.09C4.692 40.44 2.25 43.684 2.25 47.5c0 3.815 2.441 7.06 5.847 8.257L8 55.75c.133 0 .258.035.366.095.831.264 1.716.405 2.634.405h52c.937 0 1.84-.147 2.685-.42.047-.023.098-.04.15-.052 3.442-1.176 5.915-4.438 5.915-8.278 0-3.84-2.473-7.102-5.914-8.28-.053-.01-.104-.027-.151-.05-.846-.273-1.748-.42-2.685-.42zm-3.5 10c.414 0 .75.336.75.75v3c0 .414-.336.75-.75.75h-45c-.414 0-.75-.336-.75-.75v-3c0-.414.336-.75.75-.75zm-.75 1.5h-43.5v1.5h43.5v-1.5zm.75-8.5c.414 0 .75.336.75.75v3c0 .414-.336.75-.75.75h-45c-.414 0-.75-.336-.75-.75v-3c0-.414.336-.75.75-.75zm-.75 1.5h-43.5v1.5h43.5v-1.5zM62 14.75H12c-1.733 0-3.15 1.356-3.245 3.066L8.75 18v19.498c.724-.162 1.477-.248 2.25-.248h52c.773 0 1.527.086 2.25.248V18c0-1.733-1.356-3.15-3.066-3.245L62 14.75zm-4.31-5.93H16.31c-1.357 0-2.468 1.056-2.555 2.392l-.005.168-.001 1.869H60.25v-1.838c.008-.684-.258-1.344-.739-1.83-.433-.438-1.007-.704-1.617-.753l-.204-.008z"/>
    </g>
</svg>
