<svg xmlns="http://www.w3.org/2000/svg" width="54" height="79" viewBox="0 0 54 79">
    <g fill="none" fill-rule="evenodd">
        <path fill="#FFF" fill-opacity="0" d="M0 0H54V79H0z"/>
        <path fill="#B1BBC9" fill-rule="nonzero" d="M39.882 7.719c2.478.005 4.485 2.013 4.491 4.49 0 .054-.005.106-.016.156h5.233c2.298 0 4.16 1.862 4.16 4.16v32.82c0 13.577-10.166 20.652-26.317 20.78l-.433.002C10.612 70.127.25 63.05.25 49.344v-32.82c0-2.297 1.862-4.16 4.16-4.16h4.38c-.01-.05-.016-.101-.015-.155.005-2.407 1.9-4.37 4.28-4.485l.212-.005h26.615zm-10.401 14.67h-4.96c-6.582.018-11.933 5.27-12.11 11.811l-.005.303v31.464l-.004.037c3.935 1.743 8.858 2.623 14.595 2.623l.427-.002c5.558-.044 10.336-.923 14.173-2.621l-.003-.037V34.505c-.017-6.583-5.269-11.934-11.81-12.111l-.303-.005zm20.11-8.524H4.41c-1.47 0-2.66 1.19-2.66 2.66v32.82c0 7.451 3.288 12.786 9.155 15.93V34.5c.02-7.405 5.935-13.423 13.302-13.607l.312-.005h4.964c7.405.02 13.422 5.935 13.607 13.302l.004.312v30.771c5.87-3.143 9.156-8.478 9.156-15.93v-32.82c0-1.468-1.19-2.66-2.66-2.66zm-1.876 33.45c2.062 0 3.733 1.672 3.733 3.734 0 2.062-1.671 3.734-3.733 3.734-2.062 0-3.734-1.672-3.734-3.734 0-2.062 1.672-3.733 3.734-3.733zm0 1.5c-1.234 0-2.234 1-2.234 2.234s1 2.234 2.234 2.234c1.233 0 2.233-1 2.233-2.234 0-1.233-1-2.233-2.233-2.233zm0-11.729c2.062 0 3.733 1.672 3.733 3.734 0 2.062-1.671 3.733-3.733 3.733-2.062 0-3.734-1.671-3.734-3.733 0-2.062 1.672-3.734 3.734-3.734zm0 1.5c-1.234 0-2.234 1-2.234 2.234 0 1.233 1 2.233 2.234 2.233 1.233 0 2.233-1 2.233-2.233 0-1.234-1-2.234-2.233-2.234zm0-11.73c2.062 0 3.733 1.672 3.733 3.734 0 2.062-1.671 3.734-3.733 3.734-2.062 0-3.734-1.672-3.734-3.734 0-2.062 1.672-3.733 3.734-3.733zm-41.174 0c2.062 0 3.734 1.672 3.734 3.734 0 2.062-1.672 3.734-3.734 3.734-2.062 0-3.734-1.672-3.734-3.734 0-2.062 1.672-3.733 3.734-3.733zm41.174 1.5c-1.234 0-2.234 1-2.234 2.234s1 2.234 2.234 2.234c1.233 0 2.233-1 2.233-2.234 0-1.233-1-2.233-2.233-2.233zm-41.174 0c-1.234 0-2.234 1-2.234 2.234s1 2.234 2.234 2.234 2.234-1 2.234-2.234c0-1.233-1-2.233-2.234-2.233zM39.881 9.22H13.269c-1.652.004-2.99 1.342-2.994 2.994 0 .052-.006.103-.016.152h32.63c-.01-.05-.016-.1-.016-.152-.004-1.593-1.248-2.894-2.817-2.989l-.175-.005z"/>
    </g>
</svg>
