<svg xmlns="http://www.w3.org/2000/svg" width="24" height="24" viewBox="0 0 24 24">
    <g fill="none">
        <path fill="#FFF" d="M0 0H24V24H0z" opacity=".01"/>
        <path fill="#11448F" d="M5.75 13.5v-10h12.5v10h1.25V3.25c0-.552-.448-1-1-1h-13c-.552 0-1 .448-1 1V13.5h1.25zm10-6.25V6h-7.5v1.25h7.5zm0 3.75V9.75h-7.5V11h7.5zM22 21.25v-5.5c0-.552-.448-1-1-1h-5.5c-.552 0-1 .448-1 1v.875h-5v-.875c0-.552-.448-1-1-1H3c-.552 0-1 .448-1 1v5.5c0 .552.448 1 1 1h18c.552 0 1-.448 1-1zM20.75 21H3.25v-5h5v1.875h7.5V16h5v5z"/>
    </g>
</svg>
