<svg xmlns="http://www.w3.org/2000/svg" xmlns:xlink="http://www.w3.org/1999/xlink" width="60" height="60" viewBox="0 0 60 60">
    <defs>
        <rect id="prefix__a" width="60" height="60" x="0" y="0" rx="30"/>
    </defs>
    <g fill="none" fill-rule="evenodd">
        <mask id="prefix__b" fill="#fff">
            <use xlink:href="#prefix__a"/>
        </mask>
        <use fill="#11448F" fill-opacity=".122" xlink:href="#prefix__a"/>
        <path fill="#11448F" fill-rule="nonzero" d="M41.375 32.25v-15.5c0-.552-.448-1-1-1h-20.75c-.552 0-1 .448-1 1v15.5c0 .552.448 1 1 1h20.75c.552 0 1-.448 1-1zm-1.75-.75h-19.25v-14h19.25v14zm-3.5-3.5h-12.25v-7h12.25v7zM44 42.75V38.5c0-.966-.342-1.791-1.025-2.475C42.29 35.342 41.466 35 40.5 35h-21c-.966 0-1.791.342-2.475 1.025C16.342 36.71 16 37.534 16 38.5v4.25c0 .552.448 1 1 1h26c.552 0 1-.448 1-1zM42.25 42h-24.5v-3.5c0-.474.173-.884.52-1.23.346-.347.756-.52 1.23-.52h21c.474 0 .884.173 1.23.52.347.346.52.756.52 1.23V42zm-18.375-1.75V38.5h-3.5v1.75h3.5zm15.75 0V38.5h-8.75v1.75h8.75z" mask="url(#prefix__b)"/>
        <path fill="#FF1146" fill-rule="nonzero" d="M37.05 29.2L37.05 19.7 22.8 19.7 22.8 29.2z" mask="url(#prefix__b)"/>
    </g>
</svg>
558-3.61 2.652-1.02 1.094-1.827 2.356-2.42 3.787-.592 1.431-.888 2.958-.888 4.58 0 1.696.324 3.286.97 4.772.648 1.485 1.523 2.78 2.626 3.883 1.103 1.102 2.397 1.977 3.883 2.625 1.485.647 3.076.97 4.771.97zm0-1.75c-1.44 0-2.798-.273-4.074-.82-1.276-.547-2.393-1.299-3.35-2.256-.957-.957-1.709-2.073-2.256-3.35-.547-1.276-.82-2.634-.82-4.074s.273-2.798.82-4.074c.547-1.276 1.3-2.392 2.256-3.35.957-.957 2.074-1.709 3.35-2.255 1.276-.547 2.634-.82 4.074-.82s2.798.273 4.074.82c1.276.547 2.393 1.298 3.35 2.255.957.958 1.709 2.074 2.256 3.35.547 1.276.82 2.634.82 4.074s-.273 2.798-.82 4.075c-.547 1.276-1.3 2.392-2.256 3.35-.957.956-2.074 1.708-3.35 2.255-1.276.547-2.634.82-4.074.82z" mask="url(#prefix__b)"/>
        <path fill="#FF1146" fill-rule="nonzero" d="M30.875 17.555V15.75h1.75c.237 0 .442-.087.615-.26.173-.173.26-.378.26-.615s-.087-.442-.26-.615c-.173-.173-.378-.26-.615-.26h-5.25c-.237 0-.442.087-.615.26-.173.173-.26.378-.26.615s.087.442.26.615c.173.173.378.26.615.26h1.75v1.805h1.75z" mask="url(#prefix__b)"/>
    </g>
</svg>
