<svg xmlns="http://www.w3.org/2000/svg" width="44" height="79" viewBox="0 0 44 79">
    <g fill="none" fill-rule="evenodd">
        <path fill="#FFF" fill-opacity="0" d="M0 0H44V79H0z"/>
        <path fill="#B1BBC9" fill-rule="nonzero" d="M33 .25c2.55 0 4.631 2.01 4.745 4.533L37.75 5v15.537c3.1 3.619 4.98 8.312 5 13.44l1 32.023c0 7.042-5.708 12.75-12.75 12.75H13C5.958 78.75.25 73.042.25 65.977L1.25 34c0-5.156 1.882-9.877 5-13.508V5c0-2.55 2.01-4.631 4.533-4.745L11 .25h22zM22 14.749l-.332.004c-5.52.093-10.468 2.508-13.919 6.309l.001.308h-.275C4.531 24.756 2.75 29.182 2.75 34.023L1.75 66c0 6.213 5.037 11.25 11.25 11.25h18c6.213 0 11.25-5.037 11.25-11.227l-1-32.02c-.019-4.755-1.754-9.105-4.618-12.463h-.382v-.434c-3.52-3.886-8.6-6.334-14.25-6.357zm0 3.501c8.698 0 15.75 7.052 15.75 15.75S30.698 49.75 22 49.75 6.25 42.698 6.25 34 13.302 18.25 22 18.25zm0 1.5c-7.87 0-14.25 6.38-14.25 14.25S14.13 48.25 22 48.25 36.25 41.87 36.25 34 29.87 19.75 22 19.75zm0 3.5c5.937 0 10.75 4.813 10.75 10.75S27.937 44.75 22 44.75 11.25 39.937 11.25 34 16.063 23.25 22 23.25zm0 1.5c-5.109 0-9.25 4.141-9.25 9.25s4.141 9.25 9.25 9.25 9.25-4.141 9.25-9.25-4.141-9.25-9.25-9.25zm11-23H11c-1.733 0-3.15 1.356-3.245 3.066L7.75 5v13.917c3.636-3.436 8.515-5.573 13.9-5.664l.353-.003c5.52.022 10.532 2.19 14.247 5.71V5c0-1.733-1.356-3.15-3.066-3.245L33 1.75zm0 7c.414 0 .75.336.75.75 0 .38-.282.693-.648.743L33 10.25h-9c-.414 0-.75-.336-.75-.75 0-.38.282-.693.648-.743L24 8.75h9zm0-3.5c.414 0 .75.336.75.75 0 .38-.282.693-.648.743L33 6.75h-9c-.414 0-.75-.336-.75-.75 0-.38.282-.693.648-.743L24 5.25h9z"/>
    </g>
</svg>
