<svg xmlns="http://www.w3.org/2000/svg" width="47" height="79" viewBox="0 0 47 79">
    <g fill="none" fill-rule="evenodd">
        <path fill="#FFF" fill-opacity="0" d="M0 0H47V79H0z"/>
        <path fill="#B1BBC9" fill-rule="nonzero" d="M10.825 2.27C18.902.335 27.315.276 35.416 2.096l.766.177c5.033 1.259 8.568 4.381 8.568 8.744l-1 47.486c-.028 11.038-8.872 20.026-19.899 20.244l-.353.004c-11.17-.029-20.22-9.077-20.248-20.234L2.25 11c0-4.263 3.396-7.348 8.307-8.66zm24.263 1.288c-7.879-1.77-16.06-1.711-23.9.168l-.25.065C6.616 4.945 3.75 7.549 3.75 10.984l1 47.514c.026 10.346 8.406 18.726 18.742 18.752l.336-.004c10.205-.201 18.396-8.525 18.422-18.762l1-47.484c0-3.52-2.991-6.162-7.42-7.27zM23.5 56.25c3.728 0 6.75 3.022 6.75 6.75s-3.022 6.75-6.75 6.75-6.75-3.022-6.75-6.75 3.022-6.75 6.75-6.75zm0 1.5c-2.9 0-5.25 2.35-5.25 5.25s2.35 5.25 5.25 5.25 5.25-2.35 5.25-5.25-2.35-5.25-5.25-5.25zm-8.5-13c1.795 0 3.25 1.455 3.25 3.25s-1.455 3.25-3.25 3.25-3.25-1.455-3.25-3.25 1.455-3.25 3.25-3.25zm8.5 0c1.795 0 3.25 1.455 3.25 3.25s-1.455 3.25-3.25 3.25-3.25-1.455-3.25-3.25 1.455-3.25 3.25-3.25zm8.5 0c1.795 0 3.25 1.455 3.25 3.25s-1.455 3.25-3.25 3.25-3.25-1.455-3.25-3.25 1.455-3.25 3.25-3.25zm-17 1.5c-.966 0-1.75.784-1.75 1.75s.784 1.75 1.75 1.75 1.75-.784 1.75-1.75-.784-1.75-1.75-1.75zm8.5 0c-.966 0-1.75.784-1.75 1.75s.784 1.75 1.75 1.75 1.75-.784 1.75-1.75-.784-1.75-1.75-1.75zm8.5 0c-.966 0-1.75.784-1.75 1.75s.784 1.75 1.75 1.75 1.75-.784 1.75-1.75-.784-1.75-1.75-1.75zm2-36c.966 0 1.75.784 1.75 1.75v26c0 .966-.784 1.75-1.75 1.75H13c-.966 0-1.75-.784-1.75-1.75V12c0-.966.784-1.75 1.75-1.75zm0 1.5H13c-.138 0-.25.112-.25.25v26c0 .138.112.25.25.25h21c.138 0 .25-.112.25-.25V12c0-.138-.112-.25-.25-.25z"/>
    </g>
</svg>
