<svg xmlns="http://www.w3.org/2000/svg" xmlns:xlink="http://www.w3.org/1999/xlink" width="18" height="18" viewBox="0 0 18 18">
    <path d="M9 9.5c.573 0 1.104-.135 1.594-.406s.911-.62 1.265-1.047c.355-.427.633-.909.836-1.445C12.898 6.065 13 5.532 13 5c0-.552-.104-1.07-.313-1.555-.208-.484-.494-.909-.859-1.273-.364-.365-.789-.651-1.273-.86C10.07 1.105 9.552 1 9 1s-1.07.104-1.555.313c-.484.208-.909.494-1.273.859-.365.364-.651.789-.86 1.273C5.104 3.93 5 4.448 5 5c0 .531.102 1.065.305 1.602.203.536.481 1.018.836 1.445.354.427.776.776 1.265 1.047.49.27 1.021.406 1.594.406zm0-1c-.427 0-.823-.107-1.188-.32-.364-.214-.68-.487-.945-.82-.265-.334-.476-.709-.633-1.126C6.078 5.818 6 5.406 6 5c0-.823.294-1.529.883-2.117C7.47 2.294 8.177 2 9 2s1.529.294 2.117.883C11.706 3.47 12 4.177 12 5c0 .406-.078.818-.234 1.234-.157.417-.368.792-.633 1.125-.266.334-.58.607-.945.82-.365.214-.76.321-1.188.321zM9 17c.948 0 1.802-.052 2.563-.156.76-.104 1.406-.222 1.937-.352.531-.13.943-.25 1.234-.36.292-.109.448-.168.47-.179l.296-.125V15.5c0-.688-.13-1.336-.39-1.945-.261-.61-.618-1.14-1.07-1.594-.454-.453-.985-.81-1.595-1.07S11.187 10.5 10.5 10.5h-3c-.688 0-1.336.13-1.945.39-.61.261-1.14.618-1.594 1.07-.453.454-.81.985-1.07 1.595S2.5 14.813 2.5 15.5v.328l.297.125c.02.01.177.07.469.18.291.11.703.229 1.234.36.531.13 1.174.247 1.93.35.755.105 1.612.157 2.57.157zm0-1c-.698 0-1.344-.031-1.938-.094-.593-.062-1.122-.138-1.585-.226-.464-.089-.862-.18-1.196-.274-.333-.094-.588-.177-.765-.25.041-.51.174-.987.398-1.43.224-.442.516-.83.875-1.164.36-.333.77-.593 1.234-.78.464-.188.956-.282 1.477-.282h3c.52 0 1.013.094 1.477.281.463.188.875.448 1.234.781.36.334.651.722.875 1.165.224.442.357.919.398 1.43-.177.072-.432.155-.765.25-.334.093-.732.184-1.196.273-.463.088-.992.164-1.585.226C10.344 15.97 9.697 16 9 16z" />
</svg>
