<svg xmlns="http://www.w3.org/2000/svg" width="68" height="79" viewBox="0 0 68 79">
    <g fill="none" fill-rule="evenodd">
        <path fill="#FFF" fill-opacity="0" d="M0 0H68V79H0z"/>
        <path fill="#B1BBC9" fill-rule="nonzero" d="M38.274 3.994c.226-.347.69-.445 1.037-.22l2.629 1.712c.347.226.445.69.22 1.038L40.812 8.59l.466.304c.316.205.425.608.273.94l-.054.097-6.886 10.58c-.226.347-.69.445-1.037.22l-1.617-1.052c-2.516 6.14-6.757 9.35-14.076 12.061l-.436.16c-.295.107-.597.214-.924.33l-2.291.788c-4.679 1.609-6.903 2.629-8.829 4.323-2.423 2.132-3.652 5.066-3.652 9.383 0 4.738 2.687 7.71 7.27 9.343 1.57.56 3.26.918 4.963 1.113l.618.063c.443.04.842.066 1.187.08l-.002-1.86c0-.414.336-.75.75-.75h4.105v-7.931c0-1.463 1.142-2.659 2.583-2.745l.167-.005H65.03c1.519 0 2.75 1.23 2.75 2.75V69c0 1.519-1.231 2.75-2.75 2.75H23.391c-1.518 0-2.75-1.231-2.75-2.75v-7.932h-4.105c-.38 0-.693-.281-.743-.647l-.007-.102.003-1.494c-.55-.02-1.218-.067-1.977-.154-1.808-.207-3.607-.588-5.296-1.19C3.39 55.655.25 52.181.25 46.725c0-4.734 1.403-8.082 4.162-10.51 2.055-1.808 4.323-2.875 8.883-4.46l2.73-.94c.323-.113.62-.22.91-.324 7.334-2.655 11.377-5.672 13.742-11.645l-1.985-1.293c-.347-.226-.446-.69-.22-1.038l6.886-10.579c.226-.347.691-.445 1.038-.22l.531.346zm26.755 41.539H23.391c-.69 0-1.25.56-1.25 1.25V69c0 .69.56 1.25 1.25 1.25H65.03c.69 0 1.25-.56 1.25-1.25V46.783c0-.69-.56-1.25-1.25-1.25zm-4.312 18.89c.415 0 .75.337.75.75 0 .38-.282.694-.648.744l-.102.007H46.152c-.414 0-.75-.336-.75-.75 0-.38.282-.694.648-.743l.102-.007h14.565zm0-2.912c.415 0 .75.336.75.75 0 .38-.282.693-.648.743l-.102.007H46.152c-.414 0-.75-.336-.75-.75 0-.38.282-.694.648-.743l.102-.007h14.565zm-40.076-5.298h-3.355v3.355h3.355v-3.355zm15.565-48.83l-6.067 9.322 3.625 2.36 6.068-9.323-3.626-2.36zm2.915-1.941l-.935 1.436 1.372.893.935-1.436-1.372-.893z"/>
    </g>
</svg>
