<svg xmlns="http://www.w3.org/2000/svg" xmlns:xlink="http://www.w3.org/1999/xlink" width="60" height="60" viewBox="0 0 60 60">
    <defs>
        <rect id="prefix__a" width="60" height="60" x="0" y="0" rx="30"/>
    </defs>
    <g fill="none" fill-rule="evenodd">
        <mask id="prefix__b" fill="#fff">
            <use xlink:href="#prefix__a"/>
        </mask>
        <use fill="#11448F" fill-opacity=".122" xlink:href="#prefix__a"/>
        <path fill="#11448F" fill-rule="nonzero" d="M30 30.692c1.058 0 2.038-.25 2.942-.75.904-.5 1.683-1.144 2.337-1.932.654-.789 1.168-1.678 1.543-2.669.375-.99.563-1.976.563-2.956 0-1.02-.193-1.976-.577-2.87-.385-.895-.914-1.678-1.587-2.352-.673-.673-1.457-1.201-2.35-1.586C31.975 15.192 31.018 15 30 15c-1.02 0-1.976.192-2.87.577-.894.385-1.678.913-2.351 1.586-.673.674-1.202 1.457-1.587 2.351-.384.895-.577 1.851-.577 2.87 0 .981.188 1.967.563 2.957.375.99.89 1.88 1.543 2.669.654.788 1.433 1.432 2.337 1.932.904.5 1.884.75 2.942.75zm0-1.846c-.788 0-1.52-.197-2.192-.591-.673-.394-1.255-.9-1.745-1.515-.49-.615-.88-1.307-1.169-2.077-.288-.769-.432-1.528-.432-2.278 0-1.52.543-2.823 1.63-3.909 1.086-1.087 2.389-1.63 3.908-1.63 1.52 0 2.822.543 3.909 1.63 1.086 1.087 1.63 2.39 1.63 3.909 0 .75-.145 1.51-.433 2.278-.289.77-.678 1.462-1.169 2.077-.49.616-1.072 1.12-1.745 1.515-.673.394-1.404.591-2.192.591zm0 15.692c1.75 0 3.327-.096 4.73-.288 1.405-.192 2.597-.409 3.578-.649.98-.24 1.74-.462 2.279-.663.538-.202.826-.313.865-.332l.548-.231v-.606c0-1.269-.24-2.466-.721-3.591-.48-1.125-1.14-2.106-1.976-2.942-.837-.837-1.817-1.496-2.942-1.976-1.125-.481-2.323-.722-3.592-.722h-5.538c-1.27 0-2.467.24-3.592.722-1.125.48-2.105 1.139-2.942 1.976-.836.836-1.495 1.817-1.976 2.942-.48 1.125-.721 2.322-.721 3.591v.606l.548.23c.039.02.327.13.865.333.539.201 1.299.423 2.28.663.98.24 2.168.457 3.562.649 1.394.192 2.976.288 4.745.288zm0-1.846c-1.288 0-2.48-.057-3.577-.173-1.096-.115-2.072-.255-2.928-.418-.856-.163-1.591-.332-2.207-.505-.615-.173-1.086-.327-1.413-.461.077-.943.322-1.822.736-2.64.413-.817.951-1.533 1.615-2.149.663-.615 1.423-1.096 2.279-1.442.856-.346 1.764-.52 2.726-.52h5.538c.962 0 1.87.174 2.726.52.856.346 1.616.827 2.279 1.442.663.616 1.202 1.332 1.615 2.15.414.816.66 1.696.736 2.639-.327.134-.798.288-1.413.461-.616.173-1.351.342-2.207.505-.856.163-1.832.303-2.928.418-1.096.116-2.289.173-3.577.173z" mask="url(#prefix__b)"/>
        <path fill="#FF1146" fill-rule="nonzero" stroke="#E2E8F1" stroke-width="3" d="M49.375 28.5c-.628 0-1.186.216-1.667.663l-11.455 11.48-2.709-2.728c-.481-.449-1.04-.665-1.669-.665-.613 0-1.16.205-1.744.743-.426.473-.631 1.019-.631 1.632 0 .663.24 1.248.74 1.746l6.764 5.254 14.083-14.083c.448-.481.663-1.039.663-1.667 0-.613-.205-1.16-.743-1.744-.473-.426-1.019-.631-1.632-.631z"/>
    </g>
</svg>
