<svg xmlns="http://www.w3.org/2000/svg" width="20" height="20" viewBox="0 0 20 20">
    <g fill="none" fill-rule="evenodd">
        <rect width="20" height="20" fill="#F1F2F5" rx="10"/>
        <path fill="#A3AFBD" fill-rule="nonzero" stroke="#A3AFBD" stroke-width=".1" d="M5.357 10.36c.097 0 .18-.036.251-.107.07-.07.106-.154.106-.25 0-.588.112-1.143.335-1.663.223-.52.53-.976.92-1.367.391-.39.847-.697 1.368-.92.52-.223 1.075-.335 1.663-.335.365 0 .72.045 1.066.134.346.09.673.22.982.39.309.172.593.376.854.614.26.238.49.506.692.803l-2.054-.267c-.104-.015-.195.007-.273.067-.078.06-.121.137-.129.234-.014.097.008.184.067.262.06.078.138.125.235.14l2.756.368h.045c.09 0 .167-.028.234-.084.067-.056.105-.128.112-.218l.368-2.755c.015-.097-.007-.184-.067-.262-.06-.078-.137-.125-.234-.14-.097-.015-.184.01-.262.073-.078.063-.125.143-.14.24l-.234 1.718c-.23-.313-.495-.595-.793-.848-.297-.253-.619-.467-.965-.642-.346-.174-.709-.308-1.088-.401-.38-.093-.77-.14-1.172-.14-.692 0-1.341.132-1.948.396-.606.264-1.134.621-1.584 1.071-.45.45-.808.978-1.072 1.584C5.132 8.662 5 9.31 5 10.002c0 .097.035.18.106.251.07.07.154.106.251.106zM5.391 15c.089 0 .167-.03.234-.09.067-.059.108-.133.123-.222l.234-1.718c.23.312.495.595.793.847.297.253.619.467.965.642s.709.309 1.088.402c.38.093.77.139 1.172.139.692 0 1.341-.132 1.948-.396.606-.264 1.134-.621 1.584-1.071.45-.45.808-.978 1.072-1.584.264-.606.396-1.255.396-1.947 0-.097-.035-.18-.106-.25-.07-.072-.154-.107-.251-.107s-.18.035-.251.106c-.07.07-.106.154-.106.251 0 .588-.112 1.142-.335 1.662-.223.521-.53.977-.92 1.367-.391.39-.847.697-1.368.92-.52.223-1.075.335-1.663.335-.365 0-.72-.045-1.066-.134-.346-.09-.673-.22-.982-.39-.309-.171-.593-.376-.854-.614-.26-.238-.49-.506-.692-.803l2.054.268c.104.014.195-.008.273-.067.078-.06.121-.138.129-.235.014-.096-.008-.184-.067-.262-.06-.078-.138-.124-.235-.14l-2.756-.367c-.097-.015-.185.007-.263.067-.078.06-.12.137-.128.234l-.368 2.755c-.015.097.007.184.067.263.06.078.137.124.234.139h.045z"/>
    </g>
</svg>
