<svg xmlns="http://www.w3.org/2000/svg" xmlns:xlink="http://www.w3.org/1999/xlink" width="60" height="60" viewBox="0 0 60 60">
    <defs>
        <rect id="prefix__a" width="60" height="60" x="0" y="0" rx="30"/>
    </defs>
    <g fill="none" fill-rule="evenodd">
        <mask id="prefix__b" fill="#fff">
            <use xlink:href="#prefix__a"/>
        </mask>
        <use fill="#11448F" fill-opacity=".122" xlink:href="#prefix__a"/>
        <path fill="#11448F" fill-rule="nonzero" d="M30 42.003c1.66 0 3.219-.317 4.674-.95 1.455-.635 2.723-1.492 3.804-2.572 1.08-1.08 1.937-2.349 2.571-3.804.634-1.455.951-3.013.951-4.674 0-.232-.085-.433-.254-.603-.17-.17-.371-.254-.603-.254-.232 0-.433.085-.603.254-.17.17-.254.37-.254.603 0 1.41-.268 2.741-.804 3.991s-1.272 2.344-2.21 3.281c-.937.938-2.03 1.674-3.28 2.21s-2.581.804-3.992.804c-1.41 0-2.741-.268-3.991-.804s-2.344-1.272-3.281-2.21c-.938-.937-1.674-2.031-2.21-3.281s-.804-2.58-.804-3.991c0-1.41.268-2.741.804-3.991s1.272-2.344 2.21-3.281c.937-.938 2.03-1.674 3.28-2.21s2.581-.804 3.992-.804c.875 0 1.728.107 2.558.322.83.214 1.616.526 2.357.937.741.41 1.424.902 2.05 1.473.624.572 1.178 1.215 1.66 1.929l-4.929-.643c-.25-.036-.468.018-.656.16-.187.144-.29.331-.308.563-.036.232.018.442.16.63.144.187.331.299.563.335l6.59.884h.134c.214 0 .401-.067.562-.201.16-.134.25-.308.268-.523l.884-6.616c.036-.232-.018-.442-.16-.63-.144-.187-.331-.298-.563-.334-.233-.018-.442.045-.63.187-.187.143-.299.33-.335.563l-.562 4.125c-.554-.75-1.188-1.429-1.902-2.036s-1.487-1.12-2.317-1.54c-.83-.42-1.7-.741-2.611-.964-.911-.223-1.849-.335-2.813-.335-1.66 0-3.219.317-4.674.95-1.455.635-2.723 1.492-3.804 2.572-1.08 1.08-1.937 2.349-2.571 3.804-.634 1.455-.951 3.013-.951 4.674 0 1.66.317 3.219.95 4.674.635 1.455 1.492 2.723 2.572 3.804 1.08 1.08 2.349 1.937 3.804 2.571 1.455.634 3.013.951 4.674.951z" mask="url(#prefix__b)"/>
        <path fill="#FF1146" fill-rule="nonzero" d="M30 30.86c.232 0 .433-.085.603-.254.17-.17.254-.37.254-.603V24.86c0-.232-.085-.433-.254-.603-.17-.17-.37-.254-.603-.254-.232 0-.433.085-.603.254-.17.17-.254.371-.254.603v4.286h-4.286c-.232 0-.433.085-.603.254-.17.17-.254.37-.254.603 0 .232.085.433.254.603.17.17.371.254.603.254H30z" mask="url(#prefix__b)"/>
    </g>
</svg>
